<?xml version="1.0" standalone="no"?>
<!DOCTYPE svg PUBLIC "-//W3C//DTD SVG 20010904//EN"
 "http://www.w3.org/TR/2001/REC-SVG-20010904/DTD/svg10.dtd">
<svg version="1.0" xmlns="http://www.w3.org/2000/svg"
 width="260.000000pt" height="260.000000pt" viewBox="0 0 260.000000 260.000000"
 preserveAspectRatio="xMidYMid meet">
<metadata>
Created by potrace 1.11, written by Peter Selinger 2001-2013
</metadata>
<g transform="translate(0.000000,260.000000) scale(0.100000,-0.100000)"
fill="#000000" stroke="none">
<path d="M492 1820 c-140 -29 -245 -148 -289 -327 -22 -91 -22 -295 0 -386 33
-135 112 -251 200 -295 133 -67 285 -41 377 65 37 42 78 126 87 176 5 34 5 35
-47 47 -29 7 -55 9 -59 4 -4 -5 -15 -35 -26 -67 -23 -70 -73 -132 -121 -147
-51 -17 -127 -8 -167 20 -43 30 -90 99 -114 170 -26 80 -26 360 1 440 25 75
68 140 111 169 42 29 118 38 169 21 48 -15 98 -77 121 -147 11 -32 22 -62 26
-67 4 -5 30 -3 59 4 50 12 51 13 45 44 -11 51 -60 149 -94 189 -61 69 -181
107 -279 87z"/>
<path d="M1000 1299 l0 -512 163 6 c228 9 301 31 388 117 88 88 124 202 124
395 -1 184 -39 299 -129 389 -86 87 -191 115 -423 116 l-123 0 0 -511z m393
367 c67 -33 110 -86 136 -171 27 -87 34 -178 21 -280 -18 -142 -64 -227 -149
-269 -55 -28 -141 -46 -223 -46 l-58 0 0 401 0 402 109 -5 c92 -4 117 -8 164
-32z"/>
<path d="M1800 1301 l0 -511 60 0 60 0 0 225 0 225 93 0 93 0 89 -222 90 -223
68 -3 c37 -2 67 -1 67 1 0 2 -39 98 -86 213 -47 115 -90 219 -95 231 -7 20 -4
25 30 43 51 25 114 99 129 148 35 118 0 245 -87 307 -71 52 -141 67 -338 73
l-173 5 0 -512z m405 373 c64 -33 80 -64 80 -149 0 -85 -16 -116 -81 -149 -32
-17 -62 -22 -161 -25 l-123 -3 0 177 0 177 123 -4 c98 -3 130 -8 162 -24z"/>
</g>
</svg>
